<svg id="Layer_1" data-name="Layer 1" xmlns="http://www.w3.org/2000/svg" viewBox="0 0 512 212.2"><defs><style>.cls-1,.cls-2{fill:#352641;}.cls-2{font-size:91.63px;font-family:Montserrat-Bold, Montserrat;font-weight:700;}.cls-3{letter-spacing:-0.02em;}.cls-4{letter-spacing:-0.01em;}.cls-5{letter-spacing:0em;}</style></defs><title>code-global-logo</title><path class="cls-1" d="M92.47,154.26a92.58,92.58,0,1,0,92.69,92.58A92.53,92.53,0,0,0,92.47,154.26Zm64.19,55.55h-27.3a145.77,145.77,0,0,0-12.77-32.95A74.43,74.43,0,0,1,156.66,209.81ZM92.58,173.14a130.4,130.4,0,0,1,17.68,36.67H74.9A130.4,130.4,0,0,1,92.58,173.14ZM20.94,265.36a72.08,72.08,0,0,1,0-37H52.22a157.49,157.49,0,0,0-1.3,18.52,149.35,149.35,0,0,0,1.3,18.52Zm7.56,18.51H55.8a145.77,145.77,0,0,0,12.77,32.95A74,74,0,0,1,28.5,283.87Zm27.34-74.06H28.5a73.82,73.82,0,0,1,40.07-32.95A145.19,145.19,0,0,0,55.84,209.81ZM92.58,320.54A130.4,130.4,0,0,1,74.9,283.87h35.36A130.4,130.4,0,0,1,92.58,320.54Zm21.66-55.18H70.92a137,137,0,0,1-1.49-18.52,135.56,135.56,0,0,1,1.49-18.52h43.32a135.57,135.57,0,0,1,1.48,18.52A137,137,0,0,1,114.24,265.36Zm2.32,51.46a143.88,143.88,0,0,0,12.76-32.95h27.31A74.26,74.26,0,0,1,116.56,316.82Zm16.38-51.46a157.49,157.49,0,0,0,1.3-18.52,149.35,149.35,0,0,0-1.3-18.52h31.28a72.08,72.08,0,0,1,0,37Z" transform="translate(0 -149.9)"/><text class="cls-2" transform="translate(207.25 77.88)"><tspan class="cls-3">C</tspan><tspan x="65.42" y="0">ode</tspan><tspan x="0" y="109.95">Glo</tspan><tspan class="cls-4" x="158.24" y="109.95">b</tspan><tspan class="cls-5" x="220.63" y="109.95">al</tspan></text></svg>